<?xml version="1.0" standalone="no"?>
<!DOCTYPE svg PUBLIC "-//W3C//DTD SVG 20010904//EN"
 "http://www.w3.org/TR/2001/REC-SVG-20010904/DTD/svg10.dtd">
<svg version="1.0" xmlns="http://www.w3.org/2000/svg"
 width="50.000000pt" height="50.000000pt" viewBox="0 0 50.000000 50.000000"
 preserveAspectRatio="xMidYMid meet">

<g transform="translate(0.000000,50.000000) scale(0.100000,-0.100000)"
fill="#000000" stroke="none">
<path d="M240 460 c0 -16 5 -30 10 -30 6 0 10 14 10 30 0 17 -4 30 -10 30 -5
0 -10 -13 -10 -30z"/>
<path d="M90 422 c0 -14 39 -46 47 -39 3 4 -2 16 -12 27 -19 21 -35 26 -35 12z"/>
<path d="M375 410 c-10 -11 -15 -23 -12 -27 8 -7 47 25 47 39 0 14 -16 9 -35
-12z"/>
<path d="M182 390 c-88 -54 -94 -149 -16 -243 16 -19 24 -41 24 -68 0 -34 4
-41 28 -50 16 -6 39 -7 57 -2 27 8 31 14 35 55 4 28 15 57 27 70 11 13 28 37
37 55 61 121 -77 253 -192 183z m149 -36 c30 -29 45 -78 35 -117 -3 -13 -23
-45 -43 -70 -32 -40 -43 -47 -73 -47 -30 0 -41 7 -73 47 -43 53 -52 79 -43
126 6 32 45 78 76 90 32 13 92 -1 121 -29z m-41 -264 c0 -5 -13 -10 -30 -10
-40 0 -38 -18 3 -23 29 -3 29 -4 -8 -5 -36 -2 -40 0 -41 23 -2 23 2 25 37 25
21 0 39 -4 39 -10z"/>
<path d="M30 270 c0 -5 14 -10 30 -10 17 0 30 5 30 10 0 6 -13 10 -30 10 -16
0 -30 -4 -30 -10z"/>
<path d="M410 270 c0 -5 14 -10 30 -10 17 0 30 5 30 10 0 6 -13 10 -30 10 -16
0 -30 -4 -30 -10z"/>
<path d="M105 140 c-10 -11 -15 -23 -12 -27 8 -7 47 25 47 39 0 14 -16 9 -35
-12z"/>
<path d="M360 152 c0 -14 39 -46 47 -39 3 4 -2 16 -12 27 -19 21 -35 26 -35
12z"/>
</g>
</svg>


